<?xml version="1.0" encoding="utf-8"?>
<!-- Generator: Adobe Illustrator 25.3.0, SVG Export Plug-In . SVG Version: 6.00 Build 0)  -->
<svg version="1.1" id="Layer_1" xmlns="http://www.w3.org/2000/svg" xmlns:xlink="http://www.w3.org/1999/xlink" x="0px" y="0px"
	 viewBox="0 0 7009.52 1574.17" style="enable-background:new 0 0 7009.52 1574.17;" xml:space="preserve">
<style type="text/css">
	.st0{fill-rule:evenodd;clip-rule:evenodd;fill:#2F52A2;}
</style>
<path class="st0" d="M38.89,538.59h300.55v1001.79H38.89V538.59z"/>
<path class="st0" d="M760.19,538.59h300.54v1001.79H760.19V538.59z"/>
<path class="st0" d="M399.55,538.59h300.54v500.9H399.55V538.59z"/>
<g>
	<path d="M1367.89,1419.29c-3.16-3.16-4.72-7.09-4.72-11.83V771.39c0-4.72,1.56-8.66,4.72-11.81s7.09-4.73,11.83-4.73h59.12
		c4.72,0,8.66,1.58,11.81,4.73s4.73,7.09,4.73,11.81v63.84c18.91-31.52,43.94-55.36,75.08-71.52
		c31.12-16.16,65.61-24.25,103.45-24.25c49.66,0,92.8,11.64,129.45,34.89c36.64,23.25,62.84,54.98,78.62,95.17
		c16.55-41.78,42.16-73.7,76.84-95.77c34.67-22.06,74.08-33.11,118.23-33.11c66.98,0,121.17,20.5,162.55,61.48
		s62.08,94.97,62.08,161.97v443.36c0,4.73-1.58,8.67-4.73,11.83s-7.09,4.72-11.81,4.72h-59.11c-4.73,0-8.67-1.56-11.83-4.72
		s-4.73-7.09-4.73-11.83V981.84c0-50.44-13.2-88.86-39.61-115.27s-62.06-39.61-106.98-39.61c-48.88,0-88.48,17.34-118.83,52.02
		c-30.34,34.69-45.52,82.36-45.52,143.05v385.44c0,4.73-1.58,8.67-4.73,11.83s-7.09,4.72-11.81,4.72h-59.11
		c-4.73,0-8.67-1.56-11.83-4.72s-4.73-7.09-4.73-11.83V980.65c0-50.44-13.2-88.86-39.61-115.27s-62.06-39.61-106.98-39.61
		c-48.88,0-88.48,17.34-118.83,52.02c-30.34,34.69-45.52,82.38-45.52,143.06v386.61c0,4.73-1.58,8.67-4.73,11.83
		s-7.09,4.72-11.81,4.72h-59.12C1374.99,1424.01,1371.05,1422.45,1367.89,1419.29z"/>
	<path d="M2517.05,1421.65c-34.69-9.45-64.62-23.25-89.84-41.39c-3.16-1.56-5.33-4.12-6.52-7.67s-0.98-7.3,0.61-11.23l24.83-49.66
		c3.94-6.31,9.05-9.47,15.36-9.47c1.58,0,4.73,0.8,9.47,2.38c52.02,31.53,104.42,47.28,157.23,47.28c41.78,0,74.69-9.25,98.72-27.78
		c24.03-18.52,36.06-44.72,36.06-78.62c0-20.48-5.33-37.23-15.97-50.23s-24.62-23.64-41.97-31.92s-44.53-19.52-81.56-33.7
		c-48.09-18.12-85.92-35.06-113.52-50.83s-49.27-35.86-65.02-60.3c-15.77-24.44-23.64-55.56-23.64-93.41
		c0-60.69,20.09-106.8,60.3-138.33c40.19-31.53,91.81-47.3,154.88-47.3c33.09,0,66,4.73,98.72,14.19
		c32.7,9.47,62.06,22.86,88.08,40.2c3.16,1.58,5.12,4.34,5.91,8.28s0.39,7.48-1.17,10.64l-23.64,48.47
		c-1.59,4.73-4.55,7.89-8.88,9.47c-4.34,1.58-8.88,0.78-13.59-2.38c-50.45-29.94-98.92-44.92-145.42-44.92
		c-38.62,0-68.78,8.28-90.45,24.83c-21.67,16.56-32.5,40.59-32.5,72.11c0,24.44,5.91,44.16,17.73,59.12
		c11.81,14.97,26,26.2,42.56,33.69c16.55,7.5,42.95,17.94,79.2,31.33c46.5,16.56,83.16,31.92,109.95,46.11s48.86,33.11,66.2,56.75
		c17.34,23.66,26.02,54.39,26.02,92.22c0,60.69-21.09,108.58-63.25,143.66c-42.17,35.08-98.33,52.61-168.47,52.61
		C2587.21,1435.84,2551.74,1431.11,2517.05,1421.65z"/>
	<path d="M3023.05,1419.29c-3.16-3.16-4.72-7.09-4.72-11.83V771.39c0-4.72,1.56-8.66,4.72-11.81s7.09-4.73,11.83-4.73H3094
		c4.72,0,8.66,1.58,11.81,4.73s4.73,7.09,4.73,11.81v63.84c18.91-31.52,43.94-55.36,75.08-71.52
		c31.12-16.16,65.61-24.25,103.45-24.25c49.66,0,92.8,11.64,129.45,34.89c36.64,23.25,62.84,54.98,78.62,95.17
		c16.55-41.78,42.16-73.7,76.84-95.77c34.67-22.06,74.08-33.11,118.23-33.11c66.98,0,121.17,20.5,162.55,61.48
		s62.08,94.97,62.08,161.97v443.36c0,4.73-1.58,8.67-4.73,11.83s-7.09,4.72-11.81,4.72h-59.11c-4.73,0-8.67-1.56-11.83-4.72
		s-4.73-7.09-4.73-11.83V981.84c0-50.44-13.2-88.86-39.61-115.27s-62.06-39.61-106.98-39.61c-48.88,0-88.48,17.34-118.83,52.02
		c-30.34,34.69-45.52,82.36-45.52,143.05v385.44c0,4.73-1.58,8.67-4.73,11.83s-7.09,4.72-11.81,4.72h-59.11
		c-4.73,0-8.67-1.56-11.83-4.72s-4.73-7.09-4.73-11.83V980.65c0-50.44-13.2-88.86-39.61-115.27s-62.06-39.61-106.98-39.61
		c-48.88,0-88.48,17.34-118.83,52.02c-30.34,34.69-45.52,82.38-45.52,143.06v386.61c0,4.73-1.58,8.67-4.73,11.83
		s-7.09,4.72-11.81,4.72h-59.12C3030.15,1424.01,3026.21,1422.45,3023.05,1419.29z"/>
	<path d="M4010.25,1549.34c-3.16-3.17-4.72-7.11-4.72-11.83v-54.39c0-4.73,1.56-8.67,4.72-11.81c3.16-3.17,7.09-4.73,11.83-4.73
		h546.22c4.72,0,8.66,1.56,11.81,4.73c3.16,3.14,4.73,7.08,4.73,11.81v54.39c0,4.72-1.58,8.66-4.73,11.83
		c-3.16,3.14-7.09,4.72-11.81,4.72h-546.22C4017.34,1554.06,4013.4,1552.48,4010.25,1549.34z"/>
	<path d="M4775.18,1372.59c-32.31-34.28-48.47-77.44-48.47-129.47V841.15h-78.03c-4.73,0-8.67-1.58-11.83-4.73
		s-4.72-7.09-4.72-11.83v-53.2c0-4.72,1.56-8.66,4.72-11.81s7.09-4.73,11.83-4.73h78.03V630.7c0-4.72,1.56-8.66,4.72-11.81
		s7.09-4.73,11.83-4.73h59.12c4.72,0,8.66,1.58,11.81,4.73s4.73,7.09,4.73,11.81v124.14h208.08c4.72,0,8.67,1.58,11.83,4.73
		s4.73,7.09,4.73,11.81v54.39c0,4.73-1.58,8.67-4.73,11.83s-7.11,4.72-11.83,4.72h-208.08v390.16c0,30.75,9.25,55.38,27.78,73.89
		c18.52,18.53,42.75,28.19,72.72,28.97l107.58,1.19c4.72,0,8.67,1.58,11.83,4.73s4.73,7.09,4.73,11.81v54.39
		c0,4.73-1.58,8.67-4.73,11.83s-7.11,4.72-11.83,4.72h-118.22C4852.04,1424.01,4807.49,1406.87,4775.18,1372.59z"/>
	<path d="M5295.38,1389.73c-39.41-22.86-70.55-54.19-93.41-94c-22.86-39.8-34.28-82.95-34.28-129.45V997.2
		c0-46.5,11.42-89.64,34.28-129.45c22.86-39.8,54-71.12,93.41-93.98s82.38-34.3,128.88-34.3s89.45,11.44,128.86,34.3
		s70.55,54.19,93.41,93.98c22.84,39.81,34.28,82.95,34.28,129.45v80.41c0,11.83-4.14,21.88-12.42,30.16s-18.33,12.41-30.14,12.41
		h-378.33v52.02c0,29.95,7.28,57.55,21.88,82.77c14.58,25.22,34.48,45.12,59.7,59.7c25.22,14.59,52.81,21.88,82.77,21.88h171.44
		c4.72,0,8.66,1.58,11.81,4.73s4.73,7.09,4.73,11.81v54.39c0,4.73-1.58,8.67-4.73,11.83s-7.09,4.72-11.81,4.72h-171.44
		C5377.75,1424.01,5334.78,1412.59,5295.38,1389.73z M5588.6,1035.04v-43.75c0-29.94-7.3-57.53-21.88-82.75
		c-14.59-25.22-34.5-45.12-59.72-59.7s-52.81-21.88-82.75-21.88c-29.95,0-57.55,7.3-82.77,21.88s-45.12,34.48-59.7,59.7
		c-14.59,25.22-21.88,52.81-21.88,82.75v43.75H5588.6z"/>
	<path d="M5953.9,1405.11c-39.41-22.86-70.55-54.19-93.41-94c-22.86-39.8-34.28-82.95-34.28-129.47V997.2
		c0-46.5,11.42-89.64,34.28-129.45c22.86-39.8,54-71.12,93.41-93.98s82.38-34.3,128.88-34.3c33.89,0,66.02,6.31,96.36,18.92
		c30.34,12.62,56.94,29.95,79.8,52.02c4.72,4.73,7.09,10.25,7.09,16.56c0,5.52-2.38,11.42-7.09,17.73
		c-7.88,8.67-16.94,17.73-27.19,27.19c-5.53,4.73-11.44,7.09-17.73,7.09c-7.09,0-13.41-2.75-18.92-8.28
		c-31.53-29.16-68.97-43.73-112.31-43.73c-29.95,0-57.55,7.3-82.77,21.88s-45.12,34.48-59.7,59.7
		c-14.59,25.22-21.88,52.81-21.88,82.75v196.27c0,29.95,7.28,57.55,21.88,82.77c14.58,25.22,34.48,45.12,59.7,59.7
		s52.81,21.86,82.77,21.86c43.34,0,80.78-14.58,112.31-43.73c5.52-5.52,11.83-8.28,18.92-8.28c6.3,0,12.2,2.38,17.73,7.09
		c9.45,7.89,18.52,16.95,27.19,27.19c4.72,4.73,7.09,10.64,7.09,17.73c0,6.31-2.38,11.84-7.09,16.56
		c-22.86,22.06-49.45,39.41-79.8,52.02s-62.47,18.92-96.36,18.92C6036.28,1439.39,5993.31,1427.95,5953.9,1405.11z"/>
	<path d="M6442.17,1419.29c-3.16-3.16-4.72-7.09-4.72-11.83V543.22c0-4.72,1.56-8.67,4.72-11.83s7.09-4.73,11.83-4.73h59.12
		c4.72,0,8.66,1.58,11.81,4.73s4.73,7.11,4.73,11.83v294.39c20.48-32.31,47.08-56.75,79.8-73.31
		c32.72-16.55,69.56-24.83,110.55-24.83c67,0,121.19,20.5,162.56,61.48c41.38,41,62.08,94.98,62.08,161.97v444.55
		c0,4.73-1.58,8.67-4.73,11.83s-7.11,4.72-11.83,4.72h-59.11c-4.73,0-8.67-1.56-11.83-4.72s-4.72-7.09-4.72-11.83V980.65
		c0-50.44-13.2-88.86-39.61-115.27s-62.08-39.61-107-39.61c-52.81,0-95.38,17.34-127.69,52.02
		c-32.31,34.69-48.47,82.38-48.47,143.06v386.61c0,4.73-1.58,8.67-4.73,11.83s-7.09,4.72-11.81,4.72h-59.12
		C6449.26,1424.01,6445.32,1422.45,6442.17,1419.29z"/>
</g>
<g>
	<path d="M203.63,295.32L92.31,122.88v306.13H65.57V57.94h12.01L208,255.48L336.23,57.94h14.73v371.07h-26.74V120.15L214.54,293.13
		L203.63,295.32z"/>
	<path d="M443.73,391.9c6.55,2.92,14.55,6.1,24.01,9.55c9.46,3.46,19.92,6.28,31.38,8.46c11.46,2.18,23.19,3.27,35.2,3.27
		c21.09,0,38.74-3.36,52.93-10.1c14.19-6.73,25.01-15.55,32.47-26.47c7.45-10.91,11.19-22.55,11.19-34.92
		c0-13.45-3.64-25.46-10.91-36.02c-7.28-10.55-18.2-20.37-32.74-29.47c-14.55-9.09-32.93-18.19-55.12-27.28
		c-16.01-6.55-30.2-13.64-42.56-21.28c-12.37-7.64-22.74-15.91-31.1-24.83c-8.37-8.91-14.73-18.83-19.1-29.74
		c-4.37-10.91-6.55-22.92-6.55-36.02c0-16.73,4.54-31.74,13.64-45.02c9.09-13.28,22.01-23.74,38.74-31.38
		c16.73-7.64,36.74-11.46,60.03-11.46c18.19,0,35.28,2.18,51.3,6.55c16,4.37,29.47,9.28,40.38,14.73l-12,19.65
		c-6.19-2.91-13.01-5.81-20.46-8.73c-7.46-2.91-15.83-5.27-25.1-7.09c-9.28-1.82-20.29-2.73-33.01-2.73
		c-26.19,0-46.93,6.64-62.21,19.92c-15.28,13.28-22.92,29.38-22.92,48.29c0,13.83,3.73,26.19,11.19,37.11
		c7.45,10.91,18.55,21.1,33.29,30.56c14.73,9.46,32.83,18.74,54.3,27.83c16.37,6.92,30.74,14.1,43.11,21.55
		c12.36,7.46,22.65,15.55,30.83,24.28c8.19,8.73,14.37,18.2,18.55,28.38c4.18,10.19,6.28,21.47,6.28,33.83
		c0,18.2-4.73,34.29-14.19,48.29c-9.46,14.01-23.38,24.92-41.75,32.74c-18.38,7.82-41.02,11.73-67.94,11.73
		c-7.64,0-16.46-0.64-26.47-1.91c-10.01-1.28-20.01-3.1-30.01-5.46c-10.01-2.36-18.83-4.91-26.47-7.64s-13.1-5.36-16.37-7.91
		L443.73,391.9z"/>
	<path d="M873.19,295.32L761.87,122.88v306.13h-26.74V57.94h12l130.42,197.54l128.24-197.54h14.73v371.07h-26.74V120.15
		L884.1,293.13L873.19,295.32z"/>
	<path d="M1492,79.22h-127.15v349.79h-26.74V79.22h-126.6V57.94h277.76L1492,79.22z"/>
	<path d="M1547.11,296.95c0.36,21.1,3.73,40.48,10.1,58.12c6.36,17.65,16.37,31.84,30.01,42.56c13.64,10.73,31.38,16.1,53.21,16.1
		c19.28,0,34.83-1.91,46.66-5.73c11.82-3.82,22.28-8.09,31.38-12.82l10.91,20.19c-7.28,4.37-16.19,8.1-26.74,11.19
		c-10.56,3.09-21.01,5.46-31.38,7.09c-10.37,1.64-19.19,2.46-26.47,2.46c-28.74,0-52.39-6-70.94-18.01
		c-18.55-12-32.29-28.65-41.2-49.93c-8.92-21.28-13.37-45.57-13.37-72.85c0-26.55,4.18-50.2,12.55-70.94
		c8.36-20.74,21.19-37.11,38.47-49.11c17.27-12.01,38.83-18.01,64.66-18.01c20,0,37.65,5.92,52.93,17.73
		c15.28,11.83,27.37,27.92,36.29,48.29c8.91,20.38,13.37,43.48,13.37,69.3v4.37H1547.11z M1709.18,276.76
		c-1.46-17.46-5-33.56-10.64-48.29c-5.64-14.73-13.92-26.55-24.83-35.47c-10.91-8.91-25.1-13.37-42.56-13.37
		c-17.46,0-32.02,4.46-43.66,13.37c-11.65,8.92-20.65,20.74-27.01,35.47c-6.37,14.73-10.46,30.83-12.28,48.29H1709.18z"/>
	<path d="M1982.03,413.73c-7.28,4.37-15.83,8.28-25.65,11.73c-9.82,3.46-19.64,6.09-29.47,7.91c-9.82,1.82-18.55,2.73-26.19,2.73
		c-25.84,0-47.66-6-65.48-18.01c-17.83-12-31.29-28.65-40.38-49.93c-9.1-21.28-13.64-45.57-13.64-72.85
		c0-26.55,4.82-50.2,14.46-70.94c9.63-20.74,23.74-37.11,42.29-49.11s40.74-18.01,66.57-18.01c7.27,0,15.83,1.01,25.65,3
		c9.82,2,19.65,4.64,29.47,7.91c9.82,3.27,18.19,7.28,25.1,12.01l-10.91,18.01c-9.1-4.37-18.92-8.54-29.47-12.55
		c-10.56-4-24.2-6-40.93-6c-19.29,0-36.02,5.28-50.2,15.82c-14.19,10.56-25.1,24.56-32.74,42.02c-7.64,17.46-11.46,36.56-11.46,57.3
		c0,21.47,3.55,41.29,10.64,59.48c7.09,18.2,17.46,32.66,31.1,43.38c13.64,10.73,30.29,16.1,49.93,16.1
		c18.19,0,32.1-1.91,41.75-5.73c9.63-3.82,19.18-8.09,28.65-12.82L1982.03,413.73z"/>
	<path d="M2048.05,429.01V49.21l26.74-5.46v385.26H2048.05z M2074.24,205.82c7.64-8.73,16.64-16.73,27.01-24.01
		c10.37-7.27,21.37-13.18,33.01-17.74c11.64-4.54,22.92-6.82,33.83-6.82c18.91,0,34.11,3.82,45.57,11.46
		c11.46,7.64,19.82,18.01,25.1,31.1c5.27,13.1,7.91,28.2,7.91,45.29v183.9h-26.74v-183.9c0-18.19-3.27-33.65-9.82-46.38
		c-6.55-12.73-19.83-19.1-39.84-19.1c-10.56,0-21.2,2.28-31.92,6.82c-10.73,4.55-21.47,10.83-32.2,18.83
		c-10.73,8.01-21.2,17.28-31.38,27.83L2074.24,205.82z"/>
	<path d="M2320.89,429.01V164.35h20.74l5.46,41.47c7.64-8.73,16.64-16.73,27.01-24.01c10.37-7.27,21.37-13.18,33.01-17.74
		c11.64-4.54,22.92-6.82,33.83-6.82c18.91,0,34.11,3.82,45.57,11.46c11.46,7.64,19.82,18.01,25.1,31.1
		c5.27,13.1,7.91,28.2,7.91,45.29v183.9h-26.74v-183.9c0-18.19-3.27-33.65-9.82-46.38c-6.55-12.73-19.83-19.1-39.84-19.1
		c-10.56,0-21.2,2.28-31.92,6.82c-10.73,4.55-21.47,10.83-32.2,18.83c-10.74,8.01-21.2,17.28-31.38,27.83v195.9H2320.89z"/>
	<path d="M2696.88,436.1c-26.19-0.37-48.12-6.55-65.76-18.55c-17.65-12.01-31.02-28.56-40.11-49.66
		c-9.1-21.09-13.64-45.29-13.64-72.58c0-26.19,4.82-49.66,14.46-70.39c9.63-20.74,23.64-37.19,42.02-49.39
		c18.37-12.18,40.47-18.28,66.3-18.28c26.19,0,48.11,6.1,65.76,18.28c17.64,12.19,30.92,28.84,39.83,49.93
		c8.91,21.1,13.37,45.29,13.37,72.58c0,26.19-4.83,49.66-14.46,70.39c-9.64,20.74-23.56,37.11-41.75,49.11
		C2744.71,429.56,2722.7,435.74,2696.88,436.1z M2696.88,413.73c19.64,0,36.47-5.27,50.48-15.83c14-10.55,24.83-24.64,32.47-42.29
		c7.64-17.64,11.46-36.65,11.46-57.02c0-21.83-3.55-41.75-10.64-59.75s-17.38-32.38-30.83-43.11c-13.46-10.73-30.2-16.1-50.2-16.1
		c-19.29,0-36.02,5.28-50.2,15.82c-14.19,10.56-25.1,24.56-32.74,42.02c-7.64,17.46-11.46,36.56-11.46,57.3
		c0,21.47,3.55,41.29,10.64,59.48c7.09,18.2,17.46,32.66,31.1,43.38C2660.59,408.37,2677.23,413.73,2696.88,413.73z"/>
	<path d="M2884.59,429.01V49.21l26.74-5.46v385.26H2884.59z"/>
	<path d="M3096.32,436.1c-26.19-0.37-48.12-6.55-65.76-18.55c-17.65-12.01-31.02-28.56-40.11-49.66
		c-9.1-21.09-13.64-45.29-13.64-72.58c0-26.19,4.82-49.66,14.46-70.39c9.63-20.74,23.64-37.19,42.02-49.39
		c18.37-12.18,40.47-18.28,66.3-18.28c26.19,0,48.11,6.1,65.76,18.28c17.64,12.19,30.92,28.84,39.83,49.93
		c8.91,21.1,13.37,45.29,13.37,72.58c0,26.19-4.83,49.66-14.46,70.39c-9.64,20.74-23.56,37.11-41.75,49.11
		C3144.15,429.56,3122.15,435.74,3096.32,436.1z M3096.32,413.73c19.64,0,36.47-5.27,50.48-15.83c14-10.55,24.83-24.64,32.47-42.29
		c7.64-17.64,11.46-36.65,11.46-57.02c0-21.83-3.55-41.75-10.64-59.75s-17.38-32.38-30.83-43.11c-13.46-10.73-30.2-16.1-50.2-16.1
		c-19.29,0-36.02,5.28-50.2,15.82c-14.19,10.56-25.1,24.56-32.74,42.02c-7.64,17.46-11.46,36.56-11.46,57.3
		c0,21.47,3.55,41.29,10.64,59.48c7.09,18.2,17.46,32.66,31.1,43.38C3060.03,408.37,3076.68,413.73,3096.32,413.73z"/>
	<path d="M3463.03,393.54c-7.28,8.37-15.37,15.83-24.28,22.37c-8.92,6.55-18.55,11.55-28.92,15.01
		c-10.37,3.45-21.55,5.18-33.56,5.18c-25.83,0-47.2-6-64.12-18.01c-16.92-12-29.47-28.65-37.65-49.93
		c-8.18-21.28-12.28-45.57-12.28-72.85c0-26.55,4.37-50.2,13.1-70.94c8.73-20.74,21.91-37.11,39.56-49.11
		c17.64-12.01,39.38-18.01,65.21-18.01c11.64,0,23.1,2.18,34.38,6.55c11.27,4.37,21.46,9.55,30.56,15.55
		c9.09,6,16,11.73,20.74,17.19l-10.91,18.01c-9.1-8.73-19.83-16.73-32.2-24.01c-12.37-7.27-26.93-10.91-43.66-10.91
		c-19.29,0-35.56,5.28-48.84,15.82c-13.28,10.56-23.29,24.56-30.01,42.02c-6.74,17.46-10.1,36.56-10.1,57.3
		c0,21.47,3.09,41.29,9.28,59.48c6.18,18.2,15.64,32.66,28.38,43.38c12.73,10.73,28.92,16.1,48.57,16.1
		c18.19,0,33.01-3.82,44.47-11.46c11.46-7.64,21.91-16.73,31.38-27.29L3463.03,393.54z M3476.12,462.84
		c0,17.46-3.91,33.1-11.73,46.93c-7.83,13.82-19.47,24.74-34.92,32.74c-15.47,8-34.84,12.01-58.12,12.01
		c-5.46,0-12.19-0.55-20.19-1.64c-8.01-1.09-16.46-2.64-25.37-4.64c-8.92-2-17.28-4.37-25.1-7.09c-7.83-2.73-14.28-5.73-19.37-9
		l10.37-19.1c12.36,5.46,24.37,10,36.02,13.64c11.64,3.63,25.83,5.46,42.56,5.46c22.19,0,40.93-5.18,56.21-15.55
		c15.28-10.37,22.92-26.47,22.92-48.29V204.18l12-39.84h14.73V462.84z"/>
	<path d="M3553.88,95.59c-3.82-4-5.73-8.91-5.73-14.73c0-5.81,1.91-10.73,5.73-14.73c3.82-4,8.82-6,15.01-6c5.82,0,10.82,2,15.01,6
		c4.18,4.01,6.28,8.92,6.28,14.73c0,5.82-2,10.73-6,14.73c-4.01,4.01-9.1,6-15.28,6C3562.7,101.59,3557.7,99.6,3553.88,95.59z
		 M3555.79,429.01V164.35h26.74v264.66H3555.79z"/>
	<path d="M3670.38,296.95c0.36,21.1,3.73,40.48,10.1,58.12c6.36,17.65,16.37,31.84,30.01,42.56c13.64,10.73,31.38,16.1,53.21,16.1
		c19.28,0,34.83-1.91,46.66-5.73c11.82-3.82,22.28-8.09,31.38-12.82l10.91,20.19c-7.28,4.37-16.19,8.1-26.74,11.19
		c-10.56,3.09-21.01,5.46-31.38,7.09c-10.37,1.64-19.19,2.46-26.47,2.46c-28.74,0-52.39-6-70.94-18.01
		c-18.55-12-32.29-28.65-41.2-49.93c-8.92-21.28-13.37-45.57-13.37-72.85c0-26.55,4.18-50.2,12.55-70.94
		c8.36-20.74,21.19-37.11,38.47-49.11c17.27-12.01,38.83-18.01,64.66-18.01c20,0,37.65,5.92,52.93,17.73
		c15.28,11.83,27.37,27.92,36.29,48.29c8.91,20.38,13.37,43.48,13.37,69.3v4.37H3670.38z M3832.46,276.76
		c-1.46-17.46-5-33.56-10.64-48.29c-5.64-14.73-13.92-26.55-24.83-35.47c-10.91-8.91-25.1-13.37-42.56-13.37
		c-17.46,0-32.02,4.46-43.66,13.37c-11.65,8.92-20.65,20.74-27.01,35.47c-6.37,14.73-10.46,30.83-12.28,48.29H3832.46z"/>
	<path d="M3915.4,392.99c6.55,2.92,13.55,6,21.01,9.28c7.45,3.27,15.46,6,24.01,8.19c8.54,2.18,17.37,3.27,26.47,3.27
		c14.55,0,27.01-2.09,37.38-6.28c10.37-4.18,18.37-10,24.01-17.46c5.64-7.45,8.46-16.1,8.46-25.92c0-8.73-3.09-16.64-9.28-23.74
		c-6.19-7.09-14.55-13.64-25.1-19.65c-10.56-6-22.37-11.54-35.47-16.64c-13.46-5.46-26.11-11.64-37.93-18.55
		c-11.83-6.91-21.28-15.01-28.38-24.28c-7.09-9.28-10.64-19.55-10.64-30.83c0-20.74,7.72-38.1,23.19-52.11
		c15.46-14,38.1-21.01,67.94-21.01c7.64,0,16.1,0.91,25.37,2.73c9.28,1.82,18.37,4.37,27.29,7.64c8.91,3.27,16.28,7.09,22.1,11.46
		l-10.91,19.1c-7.28-3.63-16.29-7.64-27.01-12.01c-10.74-4.37-24.28-6.55-40.65-6.55c-18.55,0-33.47,4.91-44.75,14.73
		c-11.28,9.82-16.92,21.1-16.92,33.83c0,12.37,6.55,22.92,19.64,31.65c13.1,8.73,28.73,16.74,46.93,24.01
		c14.55,5.82,27.83,12.37,39.84,19.65c12,7.28,21.73,15.74,29.19,25.38c7.45,9.64,11.19,20.65,11.19,33.01
		c0,23.29-7.64,41.47-22.92,54.57s-39.84,19.65-73.67,19.65c-7.28,0-15.92-0.82-25.92-2.46c-10.01-1.64-19.83-4.01-29.47-7.09
		c-9.64-3.09-17.92-6.82-24.83-11.19L3915.4,392.99z"/>
</g>
<g>
</g>
<g>
</g>
<g>
</g>
<g>
</g>
<g>
</g>
<g>
</g>
</svg>
